# xmcd
#
# Track frame offsets:
#	150
#	15236
#	29294
#	43148
#	57391
#	72050
#	86717
#	101580
#	116673
#	131271
#	145389
#	160503
#	175743
#	190518
#	204890
#	218722
#	233033
#	248405
#	262923
#	277574
#
# Disc length: 3891 seconds
#
# Revision: 0
# Processed by: cddbd v1.5.2PL0 Copyright (c) Steve Scherf et al.
# Submitted via: EasyCDDAExtractor 16.0.6.1
#
DISCID=f90f3114
DTITLE=Συλλογικός δίσκος - Τα ρεμπέτικα Β 1922-1937 09 Α
DYEAR=2010
DGENRE=Ρεμπέτικη
TTITLE0=Γκόγκος Δημήτρης ή Μπαγιαντέρας - Πάντα με γλυκό χασίσι [χασάπ., Δημ. 
TTITLE0=Γκόγκος, Αθήνα 1935]
TTITLE1=Μπάτης Γιώργος - Η ατσιγγάνα [ζεϊμπ., καμηλιέρ., Γ. Μπάτης, Αθήνα 7.19
TTITLE1=34]
TTITLE2=Ρούκουνας Κώστας ή Σαμιωτάκης - Πόπη το σκυλάκι σου [χασάπ., Κ. Ρούκου
TTITLE2=νας, Αθήνα 1935]
TTITLE3=Εσκενάζυ Ρόζα - Ο μπελαλής [καρσιλαμάς, Ι. Ογδοντάκης, Αθήνα 1933]
TTITLE4=Κασιμάτης Ζαχαρίας - Τεκετζής [καρσιλαμάς, Σ. Περιστέρης, Αθήνα 1934]
TTITLE5=Αμπατζή Ρίτα - Για την αγάπη σου [αράπικο, Παν. Τούντας, Αθήνα 1.8.193
TTITLE5=4]
TTITLE6=Αμπατζή Ρίτα-Βαμβακάρης Μάρκος - Σαν είσαι μάγκας και νταής [χασάπ., Μ
TTITLE6=Βαμβακάρης, Αθ. 11.1934]
TTITLE7=Εσκενάζυ Ρόζα - Η μπαμπέσα [χασάπ., Ευ. Παπάζογλου, Αθήνα 1934]
TTITLE8=Ρούκουνας Κώστας ή Σαμιωτάκης - Πιτσιρίκος [απτάλ., Ι. Ογδοντάκης, Αθή
TTITLE8=να 1934]
TTITLE9=Εσκενάζυ Ρόζα - Νταρί νταντρά ο μπαγλαμάς [χασ., Εμ. Χρυσαφάκης, Αθ. 2
TTITLE9=8.12.1934]
TTITLE10=Αμπατζή Ρίτα - Φέρτε πρέζα να πρεζάρω [καλαματ., Παν. Τούντας, Αθήνα 
TTITLE10=1934]
TTITLE11=Βαμβακάρης Μάρκος - Όταν με βλέπεις να περνώ [ζεϊμπ., Μ. Βαμβακάρης, 
TTITLE11=Αθήνα 11.1934]
TTITLE12=Εσκενάζυ Ρόζα - Γίνομαι άνδρας [ζεϊμπ., Παν. Τούντας, Αθήνα 1933]
TTITLE13=Ρούκουνας Κώστας ή Σαμιωτάκης - Μαρίκα χασικλού [ζεϊμπ., Ευ. Παπάζογλ
TTITLE13=ου, Αθήνα 1934]
TTITLE14=Εσκενάζυ Ρόζα - Κορόϊδο άδικα γυρνάς [καμηλ., Γ. Καμβύσης, Αθήνα 1934
TTITLE14=]
TTITLE15=Ρούκουνας Κώστας ή Σαμιωτάκης - Πειραιώτικος μανές(Φίλοι πια δεν υπάρ
TTITLE15=χουνε)[Κ. Ρούκουνας Αθ. 1934]
TTITLE16=Εσκενάζυ Ρόζα - Με ζουρνάδες και νταούλια [ζεϊμπ., Παν. Τούντας, Αθήν
TTITLE16=α 1935]
TTITLE17=Περπινιάδης Στελλάκης - Παπατζής [ζεϊμπ., Ευ. Παπάζογλου, Αθήνα 1934]
TTITLE18=Αμπατζή Ρίτα - Αμάν Αννίτσα [αράπικο, Στ. Παντελίδης, Αθήνα 25.11.193
TTITLE18=3]
TTITLE19=Περπινιάδης Στελλάκης - Αργιλές [ζεϊμπ., καμηλ., Ευ. Παπάζογλου, Αθήν
TTITLE19=α 1.1934]
EXTD=
EXTT0=
EXTT1=
EXTT2=
EXTT3=
EXTT4=
EXTT5=
EXTT6=
EXTT7=
EXTT8=
EXTT9=
EXTT10=
EXTT11=
EXTT12=
EXTT13=
EXTT14=
EXTT15=
EXTT16=
EXTT17=
EXTT18=
EXTT19=
PLAYORDER=
